<?xml version="1.0" encoding="utf-8" standalone="no"?>
<!DOCTYPE svg PUBLIC "-//W3C//DTD SVG 1.1//EN"
  "http://www.w3.org/Graphics/SVG/1.1/DTD/svg11.dtd">
<svg xmlns:xlink="http://www.w3.org/1999/xlink" width="432pt" height="432pt" viewBox="0 0 432 432" xmlns="http://www.w3.org/2000/svg" version="1.1">
 <metadata>
  <rdf:RDF xmlns:dc="http://purl.org/dc/elements/1.1/" xmlns:cc="http://creativecommons.org/ns#" xmlns:rdf="http://www.w3.org/1999/02/22-rdf-syntax-ns#">
   <cc:Work>
    <dc:type rdf:resource="http://purl.org/dc/dcmitype/StillImage"/>
    <dc:date>2025-04-23T13:11:22.417196</dc:date>
    <dc:format>image/svg+xml</dc:format>
    <dc:creator>
     <cc:Agent>
      <dc:title>Matplotlib v3.9.2, https://matplotlib.org/</dc:title>
     </cc:Agent>
    </dc:creator>
   </cc:Work>
  </rdf:RDF>
 </metadata>
 <defs>
  <style type="text/css">*{stroke-linejoin: round; stroke-linecap: butt}</style>
 </defs>
 <g id="figure_1">
  <g id="patch_1">
   <path d="M 0 432 
L 432 432 
L 432 0 
L 0 0 
z
" style="fill: #ffffff"/>
  </g>
  <g id="axes_1">
   <g id="patch_2">
    <path d="M 54 384.48 
L 388.8 384.48 
L 388.8 51.84 
L 54 51.84 
z
" style="fill: #ffffff"/>
   </g>
   <g id="patch_3">
    <path d="M 93.0564 347.058 
C 107.75926 347.058 121.861908 341.216492 132.2584 330.82 
C 142.654892 320.423508 148.4964 306.32086 148.4964 291.618 
C 148.4964 276.91514 142.654892 262.812492 132.2584 252.416 
C 121.861908 242.019508 107.75926 236.178 93.0564 236.178 
C 78.35354 236.178 64.250892 242.019508 53.8544 252.416 
C 43.457908 262.812492 37.6164 276.91514 37.6164 291.618 
C 37.6164 306.32086 43.457908 320.423508 53.8544 330.82 
C 64.250892 341.216492 78.35354 347.058 93.0564 347.058 
L 93.0564 347.058 
z
" clip-path="url(#p23cdadbe99)" style="fill: none; opacity: 0"/>
   </g>
   <g id="patch_4">
    <path d="M 93.0564 347.058 
C 107.75926 347.058 121.861908 341.216492 132.2584 330.82 
C 142.654892 320.423508 148.4964 306.32086 148.4964 291.618 
C 148.4964 276.91514 142.654892 262.812492 132.2584 252.416 
C 121.861908 242.019508 107.75926 236.178 93.0564 236.178 
C 78.35354 236.178 64.250892 242.019508 53.8544 252.416 
C 43.457908 262.812492 37.6164 276.91514 37.6164 291.618 
C 37.6164 306.32086 43.457908 320.423508 53.8544 330.82 
C 64.250892 341.216492 78.35354 347.058 93.0564 347.058 
z
" clip-path="url(#p23cdadbe99)" style="fill: #c44e52; opacity: 0.2; stroke: #c44e52; stroke-linejoin: miter"/>
   </g>
   <g id="patch_5">
    <path d="M 334.4976 392.2416 
C 349.20046 392.2416 363.303108 386.400092 373.6996 376.0036 
C 384.096092 365.607108 389.9376 351.50446 389.9376 336.8016 
C 389.9376 322.09874 384.096092 307.996092 373.6996 297.5996 
C 363.303108 287.203108 349.20046 281.3616 334.4976 281.3616 
C 319.79474 281.3616 305.692092 287.203108 295.2956 297.5996 
C 284.899108 307.996092 279.0576 322.09874 279.0576 336.8016 
C 279.0576 351.50446 284.899108 365.607108 295.2956 376.0036 
C 305.692092 386.400092 319.79474 392.2416 334.4976 392.2416 
L 334.4976 392.2416 
z
" clip-path="url(#p23cdadbe99)" style="fill: none; opacity: 0"/>
   </g>
   <g id="patch_6">
    <path d="M 295.4124 161.334 
C 310.11526 161.334 324.217908 155.492492 334.6144 145.096 
C 345.010892 134.699508 350.8524 120.59686 350.8524 105.894 
C 350.8524 91.19114 345.010892 77.088492 334.6144 66.692 
C 324.217908 56.295508 310.11526 50.454 295.4124 50.454 
C 280.70954 50.454 266.606892 56.295508 256.2104 66.692 
C 245.813908 77.088492 239.9724 91.19114 239.9724 105.894 
C 239.9724 120.59686 245.813908 134.699508 256.2104 145.096 
C 266.606892 155.492492 280.70954 161.334 295.4124 161.334 
L 295.4124 161.334 
z
" clip-path="url(#p23cdadbe99)" style="fill: none; opacity: 0"/>
   </g>
   <g id="patch_7">
    <path d="M 295.4124 161.334 
C 310.11526 161.334 324.217908 155.492492 334.6144 145.096 
C 345.010892 134.699508 350.8524 120.59686 350.8524 105.894 
C 350.8524 91.19114 345.010892 77.088492 334.6144 66.692 
C 324.217908 56.295508 310.11526 50.454 295.4124 50.454 
C 280.70954 50.454 266.606892 56.295508 256.2104 66.692 
C 245.813908 77.088492 239.9724 91.19114 239.9724 105.894 
C 239.9724 120.59686 245.813908 134.699508 256.2104 145.096 
C 266.606892 155.492492 280.70954 161.334 295.4124 161.334 
z
" clip-path="url(#p23cdadbe99)" style="fill: #c44e52; opacity: 0.2; stroke: #c44e52; stroke-linejoin: miter"/>
   </g>
   <g id="patch_8">
    <path d="M 280.998 233.406 
C 295.70086 233.406 309.803508 227.564492 320.2 217.168 
C 330.596492 206.771508 336.438 192.66886 336.438 177.966 
C 336.438 163.26314 330.596492 149.160492 320.2 138.764 
C 309.803508 128.367508 295.70086 122.526 280.998 122.526 
C 266.29514 122.526 252.192492 128.367508 241.796 138.764 
C 231.399508 149.160492 225.558 163.26314 225.558 177.966 
C 225.558 192.66886 231.399508 206.771508 241.796 217.168 
C 252.192492 227.564492 266.29514 233.406 280.998 233.406 
L 280.998 233.406 
z
" clip-path="url(#p23cdadbe99)" style="fill: none; opacity: 0"/>
   </g>
   <g id="patch_9">
    <path d="M 317.5884 146.088 
C 332.29126 146.088 346.393908 140.246492 356.7904 129.85 
C 367.186892 119.453508 373.0284 105.35086 373.0284 90.648 
C 373.0284 75.94514 367.186892 61.842492 356.7904 51.446 
C 346.393908 41.049508 332.29126 35.208 317.5884 35.208 
C 302.88554 35.208 288.782892 41.049508 278.3864 51.446 
C 267.989908 61.842492 262.1484 75.94514 262.1484 90.648 
C 262.1484 105.35086 267.989908 119.453508 278.3864 129.85 
C 288.782892 140.246492 302.88554 146.088 317.5884 146.088 
L 317.5884 146.088 
z
" clip-path="url(#p23cdadbe99)" style="fill: none; opacity: 0"/>
   </g>
   <g id="patch_10">
    <path d="M 122.7168 376.4412 
C 137.41966 376.4412 151.522308 370.599692 161.9188 360.2032 
C 172.315292 349.806708 178.1568 335.70406 178.1568 321.0012 
C 178.1568 306.29834 172.315292 292.195692 161.9188 281.7992 
C 151.522308 271.402708 137.41966 265.5612 122.7168 265.5612 
C 108.01394 265.5612 93.911292 271.402708 83.5148 281.7992 
C 73.118308 292.195692 67.2768 306.29834 67.2768 321.0012 
C 67.2768 335.70406 73.118308 349.806708 83.5148 360.2032 
C 93.911292 370.599692 108.01394 376.4412 122.7168 376.4412 
L 122.7168 376.4412 
z
" clip-path="url(#p23cdadbe99)" style="fill: none; opacity: 0"/>
   </g>
   <g id="patch_11">
    <path d="M 352.2384 250.5924 
C 366.94126 250.5924 381.043908 244.750892 391.4404 234.3544 
C 401.836892 223.957908 407.6784 209.85526 407.6784 195.1524 
C 407.6784 180.44954 401.836892 166.346892 391.4404 155.9504 
C 381.043908 145.553908 366.94126 139.7124 352.2384 139.7124 
C 337.53554 139.7124 323.432892 145.553908 313.0364 155.9504 
C 302.639908 166.346892 296.7984 180.44954 296.7984 195.1524 
C 296.7984 209.85526 302.639908 223.957908 313.0364 234.3544 
C 323.432892 244.750892 337.53554 250.5924 352.2384 250.5924 
L 352.2384 250.5924 
z
" clip-path="url(#p23cdadbe99)" style="fill: none; opacity: 0"/>
   </g>
   <g id="patch_12">
    <path d="M 290.4228 271.3824 
C 305.12566 271.3824 319.228308 265.540892 329.6248 255.1444 
C 340.021292 244.747908 345.8628 230.64526 345.8628 215.9424 
C 345.8628 201.23954 340.021292 187.136892 329.6248 176.7404 
C 319.228308 166.343908 305.12566 160.5024 290.4228 160.5024 
C 275.71994 160.5024 261.617292 166.343908 251.2208 176.7404 
C 240.824308 187.136892 234.9828 201.23954 234.9828 215.9424 
C 234.9828 230.64526 240.824308 244.747908 251.2208 255.1444 
C 261.617292 265.540892 275.71994 271.3824 290.4228 271.3824 
L 290.4228 271.3824 
z
" clip-path="url(#p23cdadbe99)" style="fill: none; opacity: 0"/>
   </g>
   <g id="patch_13">
    <path d="M 190.908 334.3068 
C 205.61086 334.3068 219.713508 328.465292 230.11 318.0688 
C 240.506492 307.672308 246.348 293.56966 246.348 278.8668 
C 246.348 264.16394 240.506492 250.061292 230.11 239.6648 
C 219.713508 229.268308 205.61086 223.4268 190.908 223.4268 
C 176.20514 223.4268 162.102492 229.268308 151.706 239.6648 
C 141.309508 250.061292 135.468 264.16394 135.468 278.8668 
C 135.468 293.56966 141.309508 307.672308 151.706 318.0688 
C 162.102492 328.465292 176.20514 334.3068 190.908 334.3068 
L 190.908 334.3068 
z
" clip-path="url(#p23cdadbe99)" style="fill: none; opacity: 0"/>
   </g>
   <g id="patch_14">
    <path d="M 132.1416 335.6928 
C 146.84446 335.6928 160.947108 329.851292 171.3436 319.4548 
C 181.740092 309.058308 187.5816 294.95566 187.5816 280.2528 
C 187.5816 265.54994 181.740092 251.447292 171.3436 241.0508 
C 160.947108 230.654308 146.84446 224.8128 132.1416 224.8128 
C 117.43874 224.8128 103.336092 230.654308 92.9396 241.0508 
C 82.543108 251.447292 76.7016 265.54994 76.7016 280.2528 
C 76.7016 294.95566 82.543108 309.058308 92.9396 319.4548 
C 103.336092 329.851292 117.43874 335.6928 132.1416 335.6928 
L 132.1416 335.6928 
z
" clip-path="url(#p23cdadbe99)" style="fill: none; opacity: 0"/>
   </g>
   <g id="patch_15">
    <path d="M 153.2088 313.2396 
C 167.91166 313.2396 182.014308 307.398092 192.4108 297.0016 
C 202.807292 286.605108 208.6488 272.50246 208.6488 257.7996 
C 208.6488 243.09674 202.807292 228.994092 192.4108 218.5976 
C 182.014308 208.201108 167.91166 202.3596 153.2088 202.3596 
C 138.50594 202.3596 124.403292 208.201108 114.0068 218.5976 
C 103.610308 228.994092 97.7688 243.09674 97.7688 257.7996 
C 97.7688 272.50246 103.610308 286.605108 114.0068 297.0016 
C 124.403292 307.398092 138.50594 313.2396 153.2088 313.2396 
L 153.2088 313.2396 
z
" clip-path="url(#p23cdadbe99)" style="fill: none; opacity: 0"/>
   </g>
   <g id="patch_16">
    <path d="M 153.2088 313.2396 
C 167.91166 313.2396 182.014308 307.398092 192.4108 297.0016 
C 202.807292 286.605108 208.6488 272.50246 208.6488 257.7996 
C 208.6488 243.09674 202.807292 228.994092 192.4108 218.5976 
C 182.014308 208.201108 167.91166 202.3596 153.2088 202.3596 
C 138.50594 202.3596 124.403292 208.201108 114.0068 218.5976 
C 103.610308 228.994092 97.7688 243.09674 97.7688 257.7996 
C 97.7688 272.50246 103.610308 286.605108 114.0068 297.0016 
C 124.403292 307.398092 138.50594 313.2396 153.2088 313.2396 
z
" clip-path="url(#p23cdadbe99)" style="fill: #c44e52; opacity: 0.2; stroke: #c44e52; stroke-linejoin: miter"/>
   </g>
   <g id="patch_17">
    <path d="M 336.1608 282.4704 
C 350.86366 282.4704 364.966308 276.628892 375.3628 266.2324 
C 385.759292 255.835908 391.6008 241.73326 391.6008 227.0304 
C 391.6008 212.32754 385.759292 198.224892 375.3628 187.8284 
C 364.966308 177.431908 350.86366 171.5904 336.1608 171.5904 
C 321.45794 171.5904 307.355292 177.431908 296.9588 187.8284 
C 286.562308 198.224892 280.7208 212.32754 280.7208 227.0304 
C 280.7208 241.73326 286.562308 255.835908 296.9588 266.2324 
C 307.355292 276.628892 321.45794 282.4704 336.1608 282.4704 
L 336.1608 282.4704 
z
" clip-path="url(#p23cdadbe99)" style="fill: none; opacity: 0"/>
   </g>
   <g id="patch_18">
    <path d="M 334.2204 342.3456 
C 348.92326 342.3456 363.025908 336.504092 373.4224 326.1076 
C 383.818892 315.711108 389.6604 301.60846 389.6604 286.9056 
C 389.6604 272.20274 383.818892 258.100092 373.4224 247.7036 
C 363.025908 237.307108 348.92326 231.4656 334.2204 231.4656 
C 319.51754 231.4656 305.414892 237.307108 295.0184 247.7036 
C 284.621908 258.100092 278.7804 272.20274 278.7804 286.9056 
C 278.7804 301.60846 284.621908 315.711108 295.0184 326.1076 
C 305.414892 336.504092 319.51754 342.3456 334.2204 342.3456 
L 334.2204 342.3456 
z
" clip-path="url(#p23cdadbe99)" style="fill: none; opacity: 0"/>
   </g>
   <g id="patch_19">
    <path d="M 218.628 227.0304 
C 233.33086 227.0304 247.433508 221.188892 257.83 210.7924 
C 268.226492 200.395908 274.068 186.29326 274.068 171.5904 
C 274.068 156.88754 268.226492 142.784892 257.83 132.3884 
C 247.433508 121.991908 233.33086 116.1504 218.628 116.1504 
C 203.92514 116.1504 189.822492 121.991908 179.426 132.3884 
C 169.029508 142.784892 163.188 156.88754 163.188 171.5904 
C 163.188 186.29326 169.029508 200.395908 179.426 210.7924 
C 189.822492 221.188892 203.92514 227.0304 218.628 227.0304 
L 218.628 227.0304 
z
" clip-path="url(#p23cdadbe99)" style="fill: none; opacity: 0"/>
   </g>
   <g id="patch_20">
    <path d="M 238.5864 251.424 
C 253.28926 251.424 267.391908 245.582492 277.7884 235.186 
C 288.184892 224.789508 294.0264 210.68686 294.0264 195.984 
C 294.0264 181.28114 288.184892 167.178492 277.7884 156.782 
C 267.391908 146.385508 253.28926 140.544 238.5864 140.544 
C 223.88354 140.544 209.780892 146.385508 199.3844 156.782 
C 188.987908 167.178492 183.1464 181.28114 183.1464 195.984 
C 183.1464 210.68686 188.987908 224.789508 199.3844 235.186 
C 209.780892 245.582492 223.88354 251.424 238.5864 251.424 
L 238.5864 251.424 
z
" clip-path="url(#p23cdadbe99)" style="fill: none; opacity: 0"/>
   </g>
   <g id="patch_21">
    <path d="M 142.398 139.7124 
C 157.10086 139.7124 171.203508 133.870892 181.6 123.4744 
C 191.996492 113.077908 197.838 98.97526 197.838 84.2724 
C 197.838 69.56954 191.996492 55.466892 181.6 45.0704 
C 171.203508 34.673908 157.10086 28.8324 142.398 28.8324 
C 127.69514 28.8324 113.592492 34.673908 103.196 45.0704 
C 92.799508 55.466892 86.958 69.56954 86.958 84.2724 
C 86.958 98.97526 92.799508 113.077908 103.196 123.4744 
C 113.592492 133.870892 127.69514 139.7124 142.398 139.7124 
L 142.398 139.7124 
z
" clip-path="url(#p23cdadbe99)" style="fill: none; opacity: 0"/>
   </g>
   <g id="patch_22">
    <path d="M 215.3016 172.6992 
C 230.00446 172.6992 244.107108 166.857692 254.5036 156.4612 
C 264.900092 146.064708 270.7416 131.96206 270.7416 117.2592 
C 270.7416 102.55634 264.900092 88.453692 254.5036 78.0572 
C 244.107108 67.660708 230.00446 61.8192 215.3016 61.8192 
C 200.59874 61.8192 186.496092 67.660708 176.0996 78.0572 
C 165.703108 88.453692 159.8616 102.55634 159.8616 117.2592 
C 159.8616 131.96206 165.703108 146.064708 176.0996 156.4612 
C 186.496092 166.857692 200.59874 172.6992 215.3016 172.6992 
L 215.3016 172.6992 
z
" clip-path="url(#p23cdadbe99)" style="fill: none; opacity: 0"/>
   </g>
   <g id="patch_23">
    <path d="M 191.7396 410.2596 
C 206.44246 410.2596 220.545108 404.418092 230.9416 394.0216 
C 241.338092 383.625108 247.1796 369.52246 247.1796 354.8196 
C 247.1796 340.11674 241.338092 326.014092 230.9416 315.6176 
C 220.545108 305.221108 206.44246 299.3796 191.7396 299.3796 
C 177.03674 299.3796 162.934092 305.221108 152.5376 315.6176 
C 142.141108 326.014092 136.2996 340.11674 136.2996 354.8196 
C 136.2996 369.52246 142.141108 383.625108 152.5376 394.0216 
C 162.934092 404.418092 177.03674 410.2596 191.7396 410.2596 
L 191.7396 410.2596 
z
" clip-path="url(#p23cdadbe99)" style="fill: none; opacity: 0"/>
   </g>
   <g id="patch_24">
    <path d="M 171.2268 182.4012 
C 185.92966 182.4012 200.032308 176.559692 210.4288 166.1632 
C 220.825292 155.766708 226.6668 141.66406 226.6668 126.9612 
C 226.6668 112.25834 220.825292 98.155692 210.4288 87.7592 
C 200.032308 77.362708 185.92966 71.5212 171.2268 71.5212 
C 156.52394 71.5212 142.421292 77.362708 132.0248 87.7592 
C 121.628308 98.155692 115.7868 112.25834 115.7868 126.9612 
C 115.7868 141.66406 121.628308 155.766708 132.0248 166.1632 
C 142.421292 176.559692 156.52394 182.4012 171.2268 182.4012 
L 171.2268 182.4012 
z
" clip-path="url(#p23cdadbe99)" style="fill: none; opacity: 0"/>
   </g>
   <g id="patch_25">
    <path d="M 230.8248 325.4364 
C 245.52766 325.4364 259.630308 319.594892 270.0268 309.1984 
C 280.423292 298.801908 286.2648 284.69926 286.2648 269.9964 
C 286.2648 255.29354 280.423292 241.190892 270.0268 230.7944 
C 259.630308 220.397908 245.52766 214.5564 230.8248 214.5564 
C 216.12194 214.5564 202.019292 220.397908 191.6228 230.7944 
C 181.226308 241.190892 175.3848 255.29354 175.3848 269.9964 
C 175.3848 284.69926 181.226308 298.801908 191.6228 309.1984 
C 202.019292 319.594892 216.12194 325.4364 230.8248 325.4364 
L 230.8248 325.4364 
z
" clip-path="url(#p23cdadbe99)" style="fill: none; opacity: 0"/>
   </g>
   <g id="patch_26">
    <path d="M 170.3952 354.2652 
C 185.09806 354.2652 199.200708 348.423692 209.5972 338.0272 
C 219.993692 327.630708 225.8352 313.52806 225.8352 298.8252 
C 225.8352 284.12234 219.993692 270.019692 209.5972 259.6232 
C 199.200708 249.226708 185.09806 243.3852 170.3952 243.3852 
C 155.69234 243.3852 141.589692 249.226708 131.1932 259.6232 
C 120.796708 270.019692 114.9552 284.12234 114.9552 298.8252 
C 114.9552 313.52806 120.796708 327.630708 131.1932 338.0272 
C 141.589692 348.423692 155.69234 354.2652 170.3952 354.2652 
L 170.3952 354.2652 
z
" clip-path="url(#p23cdadbe99)" style="fill: none; opacity: 0"/>
   </g>
   <g id="patch_27">
    <path d="M 155.9808 210.3984 
C 170.68366 210.3984 184.786308 204.556892 195.1828 194.1604 
C 205.579292 183.763908 211.4208 169.66126 211.4208 154.9584 
C 211.4208 140.25554 205.579292 126.152892 195.1828 115.7564 
C 184.786308 105.359908 170.68366 99.5184 155.9808 99.5184 
C 141.27794 99.5184 127.175292 105.359908 116.7788 115.7564 
C 106.382308 126.152892 100.5408 140.25554 100.5408 154.9584 
C 100.5408 169.66126 106.382308 183.763908 116.7788 194.1604 
C 127.175292 204.556892 141.27794 210.3984 155.9808 210.3984 
L 155.9808 210.3984 
z
" clip-path="url(#p23cdadbe99)" style="fill: none; opacity: 0"/>
   </g>
   <g id="patch_28">
    <path d="M 209.2032 261.9576 
C 223.90606 261.9576 238.008708 256.116092 248.4052 245.7196 
C 258.801692 235.323108 264.6432 221.22046 264.6432 206.5176 
C 264.6432 191.81474 258.801692 177.712092 248.4052 167.3156 
C 238.008708 156.919108 223.90606 151.0776 209.2032 151.0776 
C 194.50034 151.0776 180.397692 156.919108 170.0012 167.3156 
C 159.604708 177.712092 153.7632 191.81474 153.7632 206.5176 
C 153.7632 221.22046 159.604708 235.323108 170.0012 245.7196 
C 180.397692 256.116092 194.50034 261.9576 209.2032 261.9576 
L 209.2032 261.9576 
z
" clip-path="url(#p23cdadbe99)" style="fill: none; opacity: 0"/>
   </g>
   <g id="patch_29">
    <path d="M 102.4812 304.9236 
C 117.18406 304.9236 131.286708 299.082092 141.6832 288.6856 
C 152.079692 278.289108 157.9212 264.18646 157.9212 249.4836 
C 157.9212 234.78074 152.079692 220.678092 141.6832 210.2816 
C 131.286708 199.885108 117.18406 194.0436 102.4812 194.0436 
C 87.77834 194.0436 73.675692 199.885108 63.2792 210.2816 
C 52.882708 220.678092 47.0412 234.78074 47.0412 249.4836 
C 47.0412 264.18646 52.882708 278.289108 63.2792 288.6856 
C 73.675692 299.082092 87.77834 304.9236 102.4812 304.9236 
L 102.4812 304.9236 
z
" clip-path="url(#p23cdadbe99)" style="fill: none; opacity: 0"/>
   </g>
   <g id="patch_30">
    <path d="M 225.558 144.9792 
C 240.26086 144.9792 254.363508 139.137692 264.76 128.7412 
C 275.156492 118.344708 280.998 104.24206 280.998 89.5392 
C 280.998 74.83634 275.156492 60.733692 264.76 50.3372 
C 254.363508 39.940708 240.26086 34.0992 225.558 34.0992 
C 210.85514 34.0992 196.752492 39.940708 186.356 50.3372 
C 175.959508 60.733692 170.118 74.83634 170.118 89.5392 
C 170.118 104.24206 175.959508 118.344708 186.356 128.7412 
C 196.752492 139.137692 210.85514 144.9792 225.558 144.9792 
L 225.558 144.9792 
z
" clip-path="url(#p23cdadbe99)" style="fill: none; opacity: 0"/>
   </g>
   <g id="patch_31">
    <path d="M 94.7196 249.2064 
C 109.42246 249.2064 123.525108 243.364892 133.9216 232.9684 
C 144.318092 222.571908 150.1596 208.46926 150.1596 193.7664 
C 150.1596 179.06354 144.318092 164.960892 133.9216 154.5644 
C 123.525108 144.167908 109.42246 138.3264 94.7196 138.3264 
C 80.01674 138.3264 65.914092 144.167908 55.5176 154.5644 
C 45.121108 164.960892 39.2796 179.06354 39.2796 193.7664 
C 39.2796 208.46926 45.121108 222.571908 55.5176 232.9684 
C 65.914092 243.364892 80.01674 249.2064 94.7196 249.2064 
L 94.7196 249.2064 
z
" clip-path="url(#p23cdadbe99)" style="fill: none; opacity: 0"/>
   </g>
   <g id="patch_32">
    <path d="M 90.0072 184.896 
C 104.71006 184.896 118.812708 179.054492 129.2092 168.658 
C 139.605692 158.261508 145.4472 144.15886 145.4472 129.456 
C 145.4472 114.75314 139.605692 100.650492 129.2092 90.254 
C 118.812708 79.857508 104.71006 74.016 90.0072 74.016 
C 75.30434 74.016 61.201692 79.857508 50.8052 90.254 
C 40.408708 100.650492 34.5672 114.75314 34.5672 129.456 
C 34.5672 144.15886 40.408708 158.261508 50.8052 168.658 
C 61.201692 179.054492 75.30434 184.896 90.0072 184.896 
L 90.0072 184.896 
z
" clip-path="url(#p23cdadbe99)" style="fill: none; opacity: 0"/>
   </g>
   <g id="patch_33">
    <path d="M 175.9392 240.0588 
C 190.64206 240.0588 204.744708 234.217292 215.1412 223.8208 
C 225.537692 213.424308 231.3792 199.32166 231.3792 184.6188 
C 231.3792 169.91594 225.537692 155.813292 215.1412 145.4168 
C 204.744708 135.020308 190.64206 129.1788 175.9392 129.1788 
C 161.23634 129.1788 147.133692 135.020308 136.7372 145.4168 
C 126.340708 155.813292 120.4992 169.91594 120.4992 184.6188 
C 120.4992 199.32166 126.340708 213.424308 136.7372 223.8208 
C 147.133692 234.217292 161.23634 240.0588 175.9392 240.0588 
L 175.9392 240.0588 
z
" clip-path="url(#p23cdadbe99)" style="fill: none; opacity: 0"/>
   </g>
   <g id="patch_34">
    <path d="M 278.7804 135.2772 
C 293.48326 135.2772 307.585908 129.435692 317.9824 119.0392 
C 328.378892 108.642708 334.2204 94.54006 334.2204 79.8372 
C 334.2204 65.13434 328.378892 51.031692 317.9824 40.6352 
C 307.585908 30.238708 293.48326 24.3972 278.7804 24.3972 
C 264.07754 24.3972 249.974892 30.238708 239.5784 40.6352 
C 229.181908 51.031692 223.3404 65.13434 223.3404 79.8372 
C 223.3404 94.54006 229.181908 108.642708 239.5784 119.0392 
C 249.974892 129.435692 264.07754 135.2772 278.7804 135.2772 
L 278.7804 135.2772 
z
" clip-path="url(#p23cdadbe99)" style="fill: none; opacity: 0"/>
   </g>
   <g id="patch_35">
    <path d="M 128.8152 232.5744 
C 143.51806 232.5744 157.620708 226.732892 168.0172 216.3364 
C 178.413692 205.939908 184.2552 191.83726 184.2552 177.1344 
C 184.2552 162.43154 178.413692 148.328892 168.0172 137.9324 
C 157.620708 127.535908 143.51806 121.6944 128.8152 121.6944 
C 114.11234 121.6944 100.009692 127.535908 89.6132 137.9324 
C 79.216708 148.328892 73.3752 162.43154 73.3752 177.1344 
C 73.3752 191.83726 79.216708 205.939908 89.6132 216.3364 
C 100.009692 226.732892 114.11234 232.5744 128.8152 232.5744 
L 128.8152 232.5744 
z
" clip-path="url(#p23cdadbe99)" style="fill: none; opacity: 0"/>
   </g>
   <g id="patch_36">
    <path d="M 298.4616 334.8612 
C 313.16446 334.8612 327.267108 329.019692 337.6636 318.6232 
C 348.060092 308.226708 353.9016 294.12406 353.9016 279.4212 
C 353.9016 264.71834 348.060092 250.615692 337.6636 240.2192 
C 327.267108 229.822708 313.16446 223.9812 298.4616 223.9812 
C 283.75874 223.9812 269.656092 229.822708 259.2596 240.2192 
C 248.863108 250.615692 243.0216 264.71834 243.0216 279.4212 
C 243.0216 294.12406 248.863108 308.226708 259.2596 318.6232 
C 269.656092 329.019692 283.75874 334.8612 298.4616 334.8612 
L 298.4616 334.8612 
z
" clip-path="url(#p23cdadbe99)" style="fill: none; opacity: 0"/>
   </g>
   <g id="patch_37">
    <path d="M 264.366 204.0228 
C 279.06886 204.0228 293.171508 198.181292 303.568 187.7848 
C 313.964492 177.388308 319.806 163.28566 319.806 148.5828 
C 319.806 133.87994 313.964492 119.777292 303.568 109.3808 
C 293.171508 98.984308 279.06886 93.1428 264.366 93.1428 
C 249.66314 93.1428 235.560492 98.984308 225.164 109.3808 
C 214.767508 119.777292 208.926 133.87994 208.926 148.5828 
C 208.926 163.28566 214.767508 177.388308 225.164 187.7848 
C 235.560492 198.181292 249.66314 204.0228 264.366 204.0228 
L 264.366 204.0228 
z
" clip-path="url(#p23cdadbe99)" style="fill: none; opacity: 0"/>
   </g>
   <g id="patch_38">
    <path d="M 340.0416 210.3984 
C 354.74446 210.3984 368.847108 204.556892 379.2436 194.1604 
C 389.640092 183.763908 395.4816 169.66126 395.4816 154.9584 
C 395.4816 140.25554 389.640092 126.152892 379.2436 115.7564 
C 368.847108 105.359908 354.74446 99.5184 340.0416 99.5184 
C 325.33874 99.5184 311.236092 105.359908 300.8396 115.7564 
C 290.443108 126.152892 284.6016 140.25554 284.6016 154.9584 
C 284.6016 169.66126 290.443108 183.763908 300.8396 194.1604 
C 311.236092 204.556892 325.33874 210.3984 340.0416 210.3984 
L 340.0416 210.3984 
z
" clip-path="url(#p23cdadbe99)" style="fill: none; opacity: 0"/>
   </g>
   <g id="patch_39">
    <path d="M 317.034 198.4788 
C 331.73686 198.4788 345.839508 192.637292 356.236 182.2408 
C 366.632492 171.844308 372.474 157.74166 372.474 143.0388 
C 372.474 128.33594 366.632492 114.233292 356.236 103.8368 
C 345.839508 93.440308 331.73686 87.5988 317.034 87.5988 
C 302.33114 87.5988 288.228492 93.440308 277.832 103.8368 
C 267.435508 114.233292 261.594 128.33594 261.594 143.0388 
C 261.594 157.74166 267.435508 171.844308 277.832 182.2408 
C 288.228492 192.637292 302.33114 198.4788 317.034 198.4788 
L 317.034 198.4788 
z
" clip-path="url(#p23cdadbe99)" style="fill: none; opacity: 0"/>
   </g>
   <g id="patch_40">
    <path d="M 210.5892 197.6472 
C 225.29206 197.6472 239.394708 191.805692 249.7912 181.4092 
C 260.187692 171.012708 266.0292 156.91006 266.0292 142.2072 
C 266.0292 127.50434 260.187692 113.401692 249.7912 103.0052 
C 239.394708 92.608708 225.29206 86.7672 210.5892 86.7672 
C 195.88634 86.7672 181.783692 92.608708 171.3872 103.0052 
C 160.990708 113.401692 155.1492 127.50434 155.1492 142.2072 
C 155.1492 156.91006 160.990708 171.012708 171.3872 181.4092 
C 181.783692 191.805692 195.88634 197.6472 210.5892 197.6472 
L 210.5892 197.6472 
z
" clip-path="url(#p23cdadbe99)" style="fill: none; opacity: 0"/>
   </g>
   <g id="patch_41">
    <path d="M 239.1408 282.1932 
C 253.84366 282.1932 267.946308 276.351692 278.3428 265.9552 
C 288.739292 255.558708 294.5808 241.45606 294.5808 226.7532 
C 294.5808 212.05034 288.739292 197.947692 278.3428 187.5512 
C 267.946308 177.154708 253.84366 171.3132 239.1408 171.3132 
C 224.43794 171.3132 210.335292 177.154708 199.9388 187.5512 
C 189.542308 197.947692 183.7008 212.05034 183.7008 226.7532 
C 183.7008 241.45606 189.542308 255.558708 199.9388 265.9552 
C 210.335292 276.351692 224.43794 282.1932 239.1408 282.1932 
L 239.1408 282.1932 
z
" clip-path="url(#p23cdadbe99)" style="fill: none; opacity: 0"/>
   </g>
   <g id="patch_42">
    <path d="M 155.7036 390.8556 
C 170.40646 390.8556 184.509108 385.014092 194.9056 374.6176 
C 205.302092 364.221108 211.1436 350.11846 211.1436 335.4156 
C 211.1436 320.71274 205.302092 306.610092 194.9056 296.2136 
C 184.509108 285.817108 170.40646 279.9756 155.7036 279.9756 
C 141.00074 279.9756 126.898092 285.817108 116.5016 296.2136 
C 106.105108 306.610092 100.2636 320.71274 100.2636 335.4156 
C 100.2636 350.11846 106.105108 364.221108 116.5016 374.6176 
C 126.898092 385.014092 141.00074 390.8556 155.7036 390.8556 
L 155.7036 390.8556 
z
" clip-path="url(#p23cdadbe99)" style="fill: none; opacity: 0"/>
   </g>
   <g id="patch_43">
    <path d="M 155.7036 390.8556 
C 170.40646 390.8556 184.509108 385.014092 194.9056 374.6176 
C 205.302092 364.221108 211.1436 350.11846 211.1436 335.4156 
C 211.1436 320.71274 205.302092 306.610092 194.9056 296.2136 
C 184.509108 285.817108 170.40646 279.9756 155.7036 279.9756 
C 141.00074 279.9756 126.898092 285.817108 116.5016 296.2136 
C 106.105108 306.610092 100.2636 320.71274 100.2636 335.4156 
C 100.2636 350.11846 106.105108 364.221108 116.5016 374.6176 
C 126.898092 385.014092 141.00074 390.8556 155.7036 390.8556 
z
" clip-path="url(#p23cdadbe99)" style="fill: #c44e52; opacity: 0.2; stroke: #c44e52; stroke-linejoin: miter"/>
   </g>
   <g id="patch_44">
    <path d="M 280.1664 391.41 
C 294.86926 391.41 308.971908 385.568492 319.3684 375.172 
C 329.764892 364.775508 335.6064 350.67286 335.6064 335.97 
C 335.6064 321.26714 329.764892 307.164492 319.3684 296.768 
C 308.971908 286.371508 294.86926 280.53 280.1664 280.53 
C 265.46354 280.53 251.360892 286.371508 240.9644 296.768 
C 230.567908 307.164492 224.7264 321.26714 224.7264 335.97 
C 224.7264 350.67286 230.567908 364.775508 240.9644 375.172 
C 251.360892 385.568492 265.46354 391.41 280.1664 391.41 
L 280.1664 391.41 
z
" clip-path="url(#p23cdadbe99)" style="fill: none; opacity: 0"/>
   </g>
   <g id="patch_45">
    <path d="M 297.63 186.8364 
C 312.33286 186.8364 326.435508 180.994892 336.832 170.5984 
C 347.228492 160.201908 353.07 146.09926 353.07 131.3964 
C 353.07 116.69354 347.228492 102.590892 336.832 92.1944 
C 326.435508 81.797908 312.33286 75.9564 297.63 75.9564 
C 282.92714 75.9564 268.824492 81.797908 258.428 92.1944 
C 248.031508 102.590892 242.19 116.69354 242.19 131.3964 
C 242.19 146.09926 248.031508 160.201908 258.428 170.5984 
C 268.824492 180.994892 282.92714 186.8364 297.63 186.8364 
L 297.63 186.8364 
z
" clip-path="url(#p23cdadbe99)" style="fill: none; opacity: 0"/>
   </g>
   <g id="patch_46">
    <path d="M 329.2308 370.0656 
C 343.93366 370.0656 358.036308 364.224092 368.4328 353.8276 
C 378.829292 343.431108 384.6708 329.32846 384.6708 314.6256 
C 384.6708 299.92274 378.829292 285.820092 368.4328 275.4236 
C 358.036308 265.027108 343.93366 259.1856 329.2308 259.1856 
C 314.52794 259.1856 300.425292 265.027108 290.0288 275.4236 
C 279.632308 285.820092 273.7908 299.92274 273.7908 314.6256 
C 273.7908 329.32846 279.632308 343.431108 290.0288 353.8276 
C 300.425292 364.224092 314.52794 370.0656 329.2308 370.0656 
L 329.2308 370.0656 
z
" clip-path="url(#p23cdadbe99)" style="fill: none; opacity: 0"/>
   </g>
   <g id="PathCollection_1">
    <defs>
     <path id="m450daea7bc" d="M 0 3 
C 0.795609 3 1.55874 2.683901 2.12132 2.12132 
C 2.683901 1.55874 3 0.795609 3 0 
C 3 -0.795609 2.683901 -1.55874 2.12132 -2.12132 
C 1.55874 -2.683901 0.795609 -3 0 -3 
C -0.795609 -3 -1.55874 -2.683901 -2.12132 -2.12132 
C -2.683901 -1.55874 -3 -0.795609 -3 0 
C -3 0.795609 -2.683901 1.55874 -2.12132 2.12132 
C -1.55874 2.683901 -0.795609 3 0 3 
z
" style="stroke: #c44e52"/>
    </defs>
    <g clip-path="url(#p23cdadbe99)">
     <use xlink:href="#m450daea7bc" x="93.0564" y="291.618" style="fill: #c44e52; stroke: #c44e52"/>
    </g>
   </g>
   <g id="patch_47">
    <path d="M 93.0564 302.706 
C 95.996972 302.706 98.817502 301.537698 100.8968 299.4584 
C 102.976098 297.379102 104.1444 294.558572 104.1444 291.618 
C 104.1444 288.677428 102.976098 285.856898 100.8968 283.7776 
C 98.817502 281.698302 95.996972 280.53 93.0564 280.53 
C 90.115828 280.53 87.295298 281.698302 85.216 283.7776 
C 83.136702 285.856898 81.9684 288.677428 81.9684 291.618 
C 81.9684 294.558572 83.136702 297.379102 85.216 299.4584 
C 87.295298 301.537698 90.115828 302.706 93.0564 302.706 
z
" clip-path="url(#p23cdadbe99)" style="fill: #c44e52; stroke: #c44e52; stroke-linejoin: miter"/>
   </g>
   <g id="PathCollection_2">
    <defs>
     <path id="me1d1295832" d="M 0 3 
C 0.795609 3 1.55874 2.683901 2.12132 2.12132 
C 2.683901 1.55874 3 0.795609 3 0 
C 3 -0.795609 2.683901 -1.55874 2.12132 -2.12132 
C 1.55874 -2.683901 0.795609 -3 0 -3 
C -0.795609 -3 -1.55874 -2.683901 -2.12132 -2.12132 
C -2.683901 -1.55874 -3 -0.795609 -3 0 
C -3 0.795609 -2.683901 1.55874 -2.12132 2.12132 
C -1.55874 2.683901 -0.795609 3 0 3 
z
" style="stroke: #dd8452"/>
    </defs>
    <g clip-path="url(#p23cdadbe99)">
     <use xlink:href="#me1d1295832" x="334.4976" y="336.8016" style="fill: #dd8452; stroke: #dd8452"/>
    </g>
   </g>
   <g id="patch_48">
    <path d="M 334.4976 347.8896 
C 337.438172 347.8896 340.258702 346.721298 342.338 344.642 
C 344.417298 342.562702 345.5856 339.742172 345.5856 336.8016 
C 345.5856 333.861028 344.417298 331.040498 342.338 328.9612 
C 340.258702 326.881902 337.438172 325.7136 334.4976 325.7136 
C 331.557028 325.7136 328.736498 326.881902 326.6572 328.9612 
C 324.577902 331.040498 323.4096 333.861028 323.4096 336.8016 
C 323.4096 339.742172 324.577902 342.562702 326.6572 344.642 
C 328.736498 346.721298 331.557028 347.8896 334.4976 347.8896 
z
" clip-path="url(#p23cdadbe99)" style="fill: #dd8452; stroke: #dd8452; stroke-linejoin: miter"/>
   </g>
   <g id="PathCollection_3">
    <g clip-path="url(#p23cdadbe99)">
     <use xlink:href="#m450daea7bc" x="295.4124" y="105.894" style="fill: #c44e52; stroke: #c44e52"/>
    </g>
   </g>
   <g id="patch_49">
    <path d="M 295.4124 116.982 
C 298.352972 116.982 301.173502 115.813698 303.2528 113.7344 
C 305.332098 111.655102 306.5004 108.834572 306.5004 105.894 
C 306.5004 102.953428 305.332098 100.132898 303.2528 98.0536 
C 301.173502 95.974302 298.352972 94.806 295.4124 94.806 
C 292.471828 94.806 289.651298 95.974302 287.572 98.0536 
C 285.492702 100.132898 284.3244 102.953428 284.3244 105.894 
C 284.3244 108.834572 285.492702 111.655102 287.572 113.7344 
C 289.651298 115.813698 292.471828 116.982 295.4124 116.982 
z
" clip-path="url(#p23cdadbe99)" style="fill: #c44e52; stroke: #c44e52; stroke-linejoin: miter"/>
   </g>
   <g id="PathCollection_4">
    <defs>
     <path id="mcaf9b8a936" d="M 0 3 
C 0.795609 3 1.55874 2.683901 2.12132 2.12132 
C 2.683901 1.55874 3 0.795609 3 0 
C 3 -0.795609 2.683901 -1.55874 2.12132 -2.12132 
C 1.55874 -2.683901 0.795609 -3 0 -3 
C -0.795609 -3 -1.55874 -2.683901 -2.12132 -2.12132 
C -2.683901 -1.55874 -3 -0.795609 -3 0 
C -3 0.795609 -2.683901 1.55874 -2.12132 2.12132 
C -1.55874 2.683901 -0.795609 3 0 3 
z
" style="stroke: #64b5cd"/>
    </defs>
    <g clip-path="url(#p23cdadbe99)">
     <use xlink:href="#mcaf9b8a936" x="280.998" y="177.966" style="fill: #64b5cd; stroke: #64b5cd"/>
    </g>
   </g>
   <g id="patch_50">
    <path d="M 280.998 189.054 
C 283.938572 189.054 286.759102 187.885698 288.8384 185.8064 
C 290.917698 183.727102 292.086 180.906572 292.086 177.966 
C 292.086 175.025428 290.917698 172.204898 288.8384 170.1256 
C 286.759102 168.046302 283.938572 166.878 280.998 166.878 
C 278.057428 166.878 275.236898 168.046302 273.1576 170.1256 
C 271.078302 172.204898 269.91 175.025428 269.91 177.966 
C 269.91 180.906572 271.078302 183.727102 273.1576 185.8064 
C 275.236898 187.885698 278.057428 189.054 280.998 189.054 
z
" clip-path="url(#p23cdadbe99)" style="fill: #64b5cd; stroke: #64b5cd; stroke-linejoin: miter"/>
   </g>
   <g id="PathCollection_5">
    <g clip-path="url(#p23cdadbe99)">
     <use xlink:href="#m450daea7bc" x="317.5884" y="90.648" style="fill: #c44e52; stroke: #c44e52"/>
    </g>
   </g>
   <g id="patch_51">
    <path d="M 317.5884 101.736 
C 320.528972 101.736 323.349502 100.567698 325.4288 98.4884 
C 327.508098 96.409102 328.6764 93.588572 328.6764 90.648 
C 328.6764 87.707428 327.508098 84.886898 325.4288 82.8076 
C 323.349502 80.728302 320.528972 79.56 317.5884 79.56 
C 314.647828 79.56 311.827298 80.728302 309.748 82.8076 
C 307.668702 84.886898 306.5004 87.707428 306.5004 90.648 
C 306.5004 93.588572 307.668702 96.409102 309.748 98.4884 
C 311.827298 100.567698 314.647828 101.736 317.5884 101.736 
z
" clip-path="url(#p23cdadbe99)" style="fill: #c44e52; stroke: #c44e52; stroke-linejoin: miter"/>
   </g>
   <g id="PathCollection_6">
    <g clip-path="url(#p23cdadbe99)">
     <use xlink:href="#m450daea7bc" x="122.7168" y="321.0012" style="fill: #c44e52; stroke: #c44e52"/>
    </g>
   </g>
   <g id="patch_52">
    <path d="M 122.7168 332.0892 
C 125.657372 332.0892 128.477902 330.920898 130.5572 328.8416 
C 132.636498 326.762302 133.8048 323.941772 133.8048 321.0012 
C 133.8048 318.060628 132.636498 315.240098 130.5572 313.1608 
C 128.477902 311.081502 125.657372 309.9132 122.7168 309.9132 
C 119.776228 309.9132 116.955698 311.081502 114.8764 313.1608 
C 112.797102 315.240098 111.6288 318.060628 111.6288 321.0012 
C 111.6288 323.941772 112.797102 326.762302 114.8764 328.8416 
C 116.955698 330.920898 119.776228 332.0892 122.7168 332.0892 
z
" clip-path="url(#p23cdadbe99)" style="fill: #c44e52; stroke: #c44e52; stroke-linejoin: miter"/>
   </g>
   <g id="PathCollection_7">
    <g clip-path="url(#p23cdadbe99)">
     <use xlink:href="#me1d1295832" x="352.2384" y="195.1524" style="fill: #dd8452; stroke: #dd8452"/>
    </g>
   </g>
   <g id="patch_53">
    <path d="M 352.2384 206.2404 
C 355.178972 206.2404 357.999502 205.072098 360.0788 202.9928 
C 362.158098 200.913502 363.3264 198.092972 363.3264 195.1524 
C 363.3264 192.211828 362.158098 189.391298 360.0788 187.312 
C 357.999502 185.232702 355.178972 184.0644 352.2384 184.0644 
C 349.297828 184.0644 346.477298 185.232702 344.398 187.312 
C 342.318702 189.391298 341.1504 192.211828 341.1504 195.1524 
C 341.1504 198.092972 342.318702 200.913502 344.398 202.9928 
C 346.477298 205.072098 349.297828 206.2404 352.2384 206.2404 
z
" clip-path="url(#p23cdadbe99)" style="fill: #dd8452; stroke: #dd8452; stroke-linejoin: miter"/>
   </g>
   <g id="PathCollection_8">
    <g clip-path="url(#p23cdadbe99)">
     <use xlink:href="#mcaf9b8a936" x="290.4228" y="215.9424" style="fill: #64b5cd; stroke: #64b5cd"/>
    </g>
   </g>
   <g id="patch_54">
    <path d="M 290.4228 227.0304 
C 293.363372 227.0304 296.183902 225.862098 298.2632 223.7828 
C 300.342498 221.703502 301.5108 218.882972 301.5108 215.9424 
C 301.5108 213.001828 300.342498 210.181298 298.2632 208.102 
C 296.183902 206.022702 293.363372 204.8544 290.4228 204.8544 
C 287.482228 204.8544 284.661698 206.022702 282.5824 208.102 
C 280.503102 210.181298 279.3348 213.001828 279.3348 215.9424 
C 279.3348 218.882972 280.503102 221.703502 282.5824 223.7828 
C 284.661698 225.862098 287.482228 227.0304 290.4228 227.0304 
z
" clip-path="url(#p23cdadbe99)" style="fill: #64b5cd; stroke: #64b5cd; stroke-linejoin: miter"/>
   </g>
   <g id="PathCollection_9">
    <g clip-path="url(#p23cdadbe99)">
     <use xlink:href="#m450daea7bc" x="190.908" y="278.8668" style="fill: #c44e52; stroke: #c44e52"/>
    </g>
   </g>
   <g id="patch_55">
    <path d="M 190.908 289.9548 
C 193.848572 289.9548 196.669102 288.786498 198.7484 286.7072 
C 200.827698 284.627902 201.996 281.807372 201.996 278.8668 
C 201.996 275.926228 200.827698 273.105698 198.7484 271.0264 
C 196.669102 268.947102 193.848572 267.7788 190.908 267.7788 
C 187.967428 267.7788 185.146898 268.947102 183.0676 271.0264 
C 180.988302 273.105698 179.82 275.926228 179.82 278.8668 
C 179.82 281.807372 180.988302 284.627902 183.0676 286.7072 
C 185.146898 288.786498 187.967428 289.9548 190.908 289.9548 
z
" clip-path="url(#p23cdadbe99)" style="fill: #c44e52; stroke: #c44e52; stroke-linejoin: miter"/>
   </g>
   <g id="PathCollection_10">
    <g clip-path="url(#p23cdadbe99)">
     <use xlink:href="#m450daea7bc" x="132.1416" y="280.2528" style="fill: #c44e52; stroke: #c44e52"/>
    </g>
   </g>
   <g id="patch_56">
    <path d="M 132.1416 291.3408 
C 135.082172 291.3408 137.902702 290.172498 139.982 288.0932 
C 142.061298 286.013902 143.2296 283.193372 143.2296 280.2528 
C 143.2296 277.312228 142.061298 274.491698 139.982 272.4124 
C 137.902702 270.333102 135.082172 269.1648 132.1416 269.1648 
C 129.201028 269.1648 126.380498 270.333102 124.3012 272.4124 
C 122.221902 274.491698 121.0536 277.312228 121.0536 280.2528 
C 121.0536 283.193372 122.221902 286.013902 124.3012 288.0932 
C 126.380498 290.172498 129.201028 291.3408 132.1416 291.3408 
z
" clip-path="url(#p23cdadbe99)" style="fill: #c44e52; stroke: #c44e52; stroke-linejoin: miter"/>
   </g>
   <g id="PathCollection_11">
    <g clip-path="url(#p23cdadbe99)">
     <use xlink:href="#m450daea7bc" x="153.2088" y="257.7996" style="fill: #c44e52; stroke: #c44e52"/>
    </g>
   </g>
   <g id="patch_57">
    <path d="M 153.2088 268.8876 
C 156.149372 268.8876 158.969902 267.719298 161.0492 265.64 
C 163.128498 263.560702 164.2968 260.740172 164.2968 257.7996 
C 164.2968 254.859028 163.128498 252.038498 161.0492 249.9592 
C 158.969902 247.879902 156.149372 246.7116 153.2088 246.7116 
C 150.268228 246.7116 147.447698 247.879902 145.3684 249.9592 
C 143.289102 252.038498 142.1208 254.859028 142.1208 257.7996 
C 142.1208 260.740172 143.289102 263.560702 145.3684 265.64 
C 147.447698 267.719298 150.268228 268.8876 153.2088 268.8876 
z
" clip-path="url(#p23cdadbe99)" style="fill: #c44e52; stroke: #c44e52; stroke-linejoin: miter"/>
   </g>
   <g id="PathCollection_12">
    <g clip-path="url(#p23cdadbe99)">
     <use xlink:href="#me1d1295832" x="336.1608" y="227.0304" style="fill: #dd8452; stroke: #dd8452"/>
    </g>
   </g>
   <g id="patch_58">
    <path d="M 336.1608 238.1184 
C 339.101372 238.1184 341.921902 236.950098 344.0012 234.8708 
C 346.080498 232.791502 347.2488 229.970972 347.2488 227.0304 
C 347.2488 224.089828 346.080498 221.269298 344.0012 219.19 
C 341.921902 217.110702 339.101372 215.9424 336.1608 215.9424 
C 333.220228 215.9424 330.399698 217.110702 328.3204 219.19 
C 326.241102 221.269298 325.0728 224.089828 325.0728 227.0304 
C 325.0728 229.970972 326.241102 232.791502 328.3204 234.8708 
C 330.399698 236.950098 333.220228 238.1184 336.1608 238.1184 
z
" clip-path="url(#p23cdadbe99)" style="fill: #dd8452; stroke: #dd8452; stroke-linejoin: miter"/>
   </g>
   <g id="PathCollection_13">
    <g clip-path="url(#p23cdadbe99)">
     <use xlink:href="#me1d1295832" x="334.2204" y="286.9056" style="fill: #dd8452; stroke: #dd8452"/>
    </g>
   </g>
   <g id="patch_59">
    <path d="M 334.2204 297.9936 
C 337.160972 297.9936 339.981502 296.825298 342.0608 294.746 
C 344.140098 292.666702 345.3084 289.846172 345.3084 286.9056 
C 345.3084 283.965028 344.140098 281.144498 342.0608 279.0652 
C 339.981502 276.985902 337.160972 275.8176 334.2204 275.8176 
C 331.279828 275.8176 328.459298 276.985902 326.38 279.0652 
C 324.300702 281.144498 323.1324 283.965028 323.1324 286.9056 
C 323.1324 289.846172 324.300702 292.666702 326.38 294.746 
C 328.459298 296.825298 331.279828 297.9936 334.2204 297.9936 
z
" clip-path="url(#p23cdadbe99)" style="fill: #dd8452; stroke: #dd8452; stroke-linejoin: miter"/>
   </g>
   <g id="PathCollection_14">
    <g clip-path="url(#p23cdadbe99)">
     <use xlink:href="#me1d1295832" x="218.628" y="171.5904" style="fill: #dd8452; stroke: #dd8452"/>
    </g>
   </g>
   <g id="patch_60">
    <path d="M 218.628 182.6784 
C 221.568572 182.6784 224.389102 181.510098 226.4684 179.4308 
C 228.547698 177.351502 229.716 174.530972 229.716 171.5904 
C 229.716 168.649828 228.547698 165.829298 226.4684 163.75 
C 224.389102 161.670702 221.568572 160.5024 218.628 160.5024 
C 215.687428 160.5024 212.866898 161.670702 210.7876 163.75 
C 208.708302 165.829298 207.54 168.649828 207.54 171.5904 
C 207.54 174.530972 208.708302 177.351502 210.7876 179.4308 
C 212.866898 181.510098 215.687428 182.6784 218.628 182.6784 
z
" clip-path="url(#p23cdadbe99)" style="fill: #dd8452; stroke: #dd8452; stroke-linejoin: miter"/>
   </g>
   <g id="PathCollection_15">
    <g clip-path="url(#p23cdadbe99)">
     <use xlink:href="#mcaf9b8a936" x="238.5864" y="195.984" style="fill: #64b5cd; stroke: #64b5cd"/>
    </g>
   </g>
   <g id="patch_61">
    <path d="M 238.5864 207.072 
C 241.526972 207.072 244.347502 205.903698 246.4268 203.8244 
C 248.506098 201.745102 249.6744 198.924572 249.6744 195.984 
C 249.6744 193.043428 248.506098 190.222898 246.4268 188.1436 
C 244.347502 186.064302 241.526972 184.896 238.5864 184.896 
C 235.645828 184.896 232.825298 186.064302 230.746 188.1436 
C 228.666702 190.222898 227.4984 193.043428 227.4984 195.984 
C 227.4984 198.924572 228.666702 201.745102 230.746 203.8244 
C 232.825298 205.903698 235.645828 207.072 238.5864 207.072 
z
" clip-path="url(#p23cdadbe99)" style="fill: #64b5cd; stroke: #64b5cd; stroke-linejoin: miter"/>
   </g>
   <g id="PathCollection_16">
    <g clip-path="url(#p23cdadbe99)">
     <use xlink:href="#me1d1295832" x="142.398" y="84.2724" style="fill: #dd8452; stroke: #dd8452"/>
    </g>
   </g>
   <g id="patch_62">
    <path d="M 142.398 95.3604 
C 145.338572 95.3604 148.159102 94.192098 150.2384 92.1128 
C 152.317698 90.033502 153.486 87.212972 153.486 84.2724 
C 153.486 81.331828 152.317698 78.511298 150.2384 76.432 
C 148.159102 74.352702 145.338572 73.1844 142.398 73.1844 
C 139.457428 73.1844 136.636898 74.352702 134.5576 76.432 
C 132.478302 78.511298 131.31 81.331828 131.31 84.2724 
C 131.31 87.212972 132.478302 90.033502 134.5576 92.1128 
C 136.636898 94.192098 139.457428 95.3604 142.398 95.3604 
z
" clip-path="url(#p23cdadbe99)" style="fill: #dd8452; stroke: #dd8452; stroke-linejoin: miter"/>
   </g>
   <g id="PathCollection_17">
    <g clip-path="url(#p23cdadbe99)">
     <use xlink:href="#me1d1295832" x="215.3016" y="117.2592" style="fill: #dd8452; stroke: #dd8452"/>
    </g>
   </g>
   <g id="patch_63">
    <path d="M 215.3016 128.3472 
C 218.242172 128.3472 221.062702 127.178898 223.142 125.0996 
C 225.221298 123.020302 226.3896 120.199772 226.3896 117.2592 
C 226.3896 114.318628 225.221298 111.498098 223.142 109.4188 
C 221.062702 107.339502 218.242172 106.1712 215.3016 106.1712 
C 212.361028 106.1712 209.540498 107.339502 207.4612 109.4188 
C 205.381902 111.498098 204.2136 114.318628 204.2136 117.2592 
C 204.2136 120.199772 205.381902 123.020302 207.4612 125.0996 
C 209.540498 127.178898 212.361028 128.3472 215.3016 128.3472 
z
" clip-path="url(#p23cdadbe99)" style="fill: #dd8452; stroke: #dd8452; stroke-linejoin: miter"/>
   </g>
   <g id="PathCollection_18">
    <g clip-path="url(#p23cdadbe99)">
     <use xlink:href="#m450daea7bc" x="191.7396" y="354.8196" style="fill: #c44e52; stroke: #c44e52"/>
    </g>
   </g>
   <g id="patch_64">
    <path d="M 191.7396 365.9076 
C 194.680172 365.9076 197.500702 364.739298 199.58 362.66 
C 201.659298 360.580702 202.8276 357.760172 202.8276 354.8196 
C 202.8276 351.879028 201.659298 349.058498 199.58 346.9792 
C 197.500702 344.899902 194.680172 343.7316 191.7396 343.7316 
C 188.799028 343.7316 185.978498 344.899902 183.8992 346.9792 
C 181.819902 349.058498 180.6516 351.879028 180.6516 354.8196 
C 180.6516 357.760172 181.819902 360.580702 183.8992 362.66 
C 185.978498 364.739298 188.799028 365.9076 191.7396 365.9076 
z
" clip-path="url(#p23cdadbe99)" style="fill: #c44e52; stroke: #c44e52; stroke-linejoin: miter"/>
   </g>
   <g id="PathCollection_19">
    <g clip-path="url(#p23cdadbe99)">
     <use xlink:href="#me1d1295832" x="171.2268" y="126.9612" style="fill: #dd8452; stroke: #dd8452"/>
    </g>
   </g>
   <g id="patch_65">
    <path d="M 171.2268 138.0492 
C 174.167372 138.0492 176.987902 136.880898 179.0672 134.8016 
C 181.146498 132.722302 182.3148 129.901772 182.3148 126.9612 
C 182.3148 124.020628 181.146498 121.200098 179.0672 119.1208 
C 176.987902 117.041502 174.167372 115.8732 171.2268 115.8732 
C 168.286228 115.8732 165.465698 117.041502 163.3864 119.1208 
C 161.307102 121.200098 160.1388 124.020628 160.1388 126.9612 
C 160.1388 129.901772 161.307102 132.722302 163.3864 134.8016 
C 165.465698 136.880898 168.286228 138.0492 171.2268 138.0492 
z
" clip-path="url(#p23cdadbe99)" style="fill: #dd8452; stroke: #dd8452; stroke-linejoin: miter"/>
   </g>
   <g id="PathCollection_20">
    <g clip-path="url(#p23cdadbe99)">
     <use xlink:href="#mcaf9b8a936" x="230.8248" y="269.9964" style="fill: #64b5cd; stroke: #64b5cd"/>
    </g>
   </g>
   <g id="patch_66">
    <path d="M 230.8248 281.0844 
C 233.765372 281.0844 236.585902 279.916098 238.6652 277.8368 
C 240.744498 275.757502 241.9128 272.936972 241.9128 269.9964 
C 241.9128 267.055828 240.744498 264.235298 238.6652 262.156 
C 236.585902 260.076702 233.765372 258.9084 230.8248 258.9084 
C 227.884228 258.9084 225.063698 260.076702 222.9844 262.156 
C 220.905102 264.235298 219.7368 267.055828 219.7368 269.9964 
C 219.7368 272.936972 220.905102 275.757502 222.9844 277.8368 
C 225.063698 279.916098 227.884228 281.0844 230.8248 281.0844 
z
" clip-path="url(#p23cdadbe99)" style="fill: #64b5cd; stroke: #64b5cd; stroke-linejoin: miter"/>
   </g>
   <g id="PathCollection_21">
    <g clip-path="url(#p23cdadbe99)">
     <use xlink:href="#m450daea7bc" x="170.3952" y="298.8252" style="fill: #c44e52; stroke: #c44e52"/>
    </g>
   </g>
   <g id="patch_67">
    <path d="M 170.3952 309.9132 
C 173.335772 309.9132 176.156302 308.744898 178.2356 306.6656 
C 180.314898 304.586302 181.4832 301.765772 181.4832 298.8252 
C 181.4832 295.884628 180.314898 293.064098 178.2356 290.9848 
C 176.156302 288.905502 173.335772 287.7372 170.3952 287.7372 
C 167.454628 287.7372 164.634098 288.905502 162.5548 290.9848 
C 160.475502 293.064098 159.3072 295.884628 159.3072 298.8252 
C 159.3072 301.765772 160.475502 304.586302 162.5548 306.6656 
C 164.634098 308.744898 167.454628 309.9132 170.3952 309.9132 
z
" clip-path="url(#p23cdadbe99)" style="fill: #c44e52; stroke: #c44e52; stroke-linejoin: miter"/>
   </g>
   <g id="PathCollection_22">
    <g clip-path="url(#p23cdadbe99)">
     <use xlink:href="#me1d1295832" x="155.9808" y="154.9584" style="fill: #dd8452; stroke: #dd8452"/>
    </g>
   </g>
   <g id="patch_68">
    <path d="M 155.9808 166.0464 
C 158.921372 166.0464 161.741902 164.878098 163.8212 162.7988 
C 165.900498 160.719502 167.0688 157.898972 167.0688 154.9584 
C 167.0688 152.017828 165.900498 149.197298 163.8212 147.118 
C 161.741902 145.038702 158.921372 143.8704 155.9808 143.8704 
C 153.040228 143.8704 150.219698 145.038702 148.1404 147.118 
C 146.061102 149.197298 144.8928 152.017828 144.8928 154.9584 
C 144.8928 157.898972 146.061102 160.719502 148.1404 162.7988 
C 150.219698 164.878098 153.040228 166.0464 155.9808 166.0464 
z
" clip-path="url(#p23cdadbe99)" style="fill: #dd8452; stroke: #dd8452; stroke-linejoin: miter"/>
   </g>
   <g id="PathCollection_23">
    <g clip-path="url(#p23cdadbe99)">
     <use xlink:href="#me1d1295832" x="209.2032" y="206.5176" style="fill: #dd8452; stroke: #dd8452"/>
    </g>
   </g>
   <g id="patch_69">
    <path d="M 209.2032 217.6056 
C 212.143772 217.6056 214.964302 216.437298 217.0436 214.358 
C 219.122898 212.278702 220.2912 209.458172 220.2912 206.5176 
C 220.2912 203.577028 219.122898 200.756498 217.0436 198.6772 
C 214.964302 196.597902 212.143772 195.4296 209.2032 195.4296 
C 206.262628 195.4296 203.442098 196.597902 201.3628 198.6772 
C 199.283502 200.756498 198.1152 203.577028 198.1152 206.5176 
C 198.1152 209.458172 199.283502 212.278702 201.3628 214.358 
C 203.442098 216.437298 206.262628 217.6056 209.2032 217.6056 
z
" clip-path="url(#p23cdadbe99)" style="fill: #dd8452; stroke: #dd8452; stroke-linejoin: miter"/>
   </g>
   <g id="PathCollection_24">
    <g clip-path="url(#p23cdadbe99)">
     <use xlink:href="#m450daea7bc" x="102.4812" y="249.4836" style="fill: #c44e52; stroke: #c44e52"/>
    </g>
   </g>
   <g id="patch_70">
    <path d="M 102.4812 260.5716 
C 105.421772 260.5716 108.242302 259.403298 110.3216 257.324 
C 112.400898 255.244702 113.5692 252.424172 113.5692 249.4836 
C 113.5692 246.543028 112.400898 243.722498 110.3216 241.6432 
C 108.242302 239.563902 105.421772 238.3956 102.4812 238.3956 
C 99.540628 238.3956 96.720098 239.563902 94.6408 241.6432 
C 92.561502 243.722498 91.3932 246.543028 91.3932 249.4836 
C 91.3932 252.424172 92.561502 255.244702 94.6408 257.324 
C 96.720098 259.403298 99.540628 260.5716 102.4812 260.5716 
z
" clip-path="url(#p23cdadbe99)" style="fill: #c44e52; stroke: #c44e52; stroke-linejoin: miter"/>
   </g>
   <g id="PathCollection_25">
    <g clip-path="url(#p23cdadbe99)">
     <use xlink:href="#me1d1295832" x="225.558" y="89.5392" style="fill: #dd8452; stroke: #dd8452"/>
    </g>
   </g>
   <g id="patch_71">
    <path d="M 225.558 100.6272 
C 228.498572 100.6272 231.319102 99.458898 233.3984 97.3796 
C 235.477698 95.300302 236.646 92.479772 236.646 89.5392 
C 236.646 86.598628 235.477698 83.778098 233.3984 81.6988 
C 231.319102 79.619502 228.498572 78.4512 225.558 78.4512 
C 222.617428 78.4512 219.796898 79.619502 217.7176 81.6988 
C 215.638302 83.778098 214.47 86.598628 214.47 89.5392 
C 214.47 92.479772 215.638302 95.300302 217.7176 97.3796 
C 219.796898 99.458898 222.617428 100.6272 225.558 100.6272 
z
" clip-path="url(#p23cdadbe99)" style="fill: #dd8452; stroke: #dd8452; stroke-linejoin: miter"/>
   </g>
   <g id="PathCollection_26">
    <g clip-path="url(#p23cdadbe99)">
     <use xlink:href="#me1d1295832" x="94.7196" y="193.7664" style="fill: #dd8452; stroke: #dd8452"/>
    </g>
   </g>
   <g id="patch_72">
    <path d="M 94.7196 204.8544 
C 97.660172 204.8544 100.480702 203.686098 102.56 201.6068 
C 104.639298 199.527502 105.8076 196.706972 105.8076 193.7664 
C 105.8076 190.825828 104.639298 188.005298 102.56 185.926 
C 100.480702 183.846702 97.660172 182.6784 94.7196 182.6784 
C 91.779028 182.6784 88.958498 183.846702 86.8792 185.926 
C 84.799902 188.005298 83.6316 190.825828 83.6316 193.7664 
C 83.6316 196.706972 84.799902 199.527502 86.8792 201.6068 
C 88.958498 203.686098 91.779028 204.8544 94.7196 204.8544 
z
" clip-path="url(#p23cdadbe99)" style="fill: #dd8452; stroke: #dd8452; stroke-linejoin: miter"/>
   </g>
   <g id="PathCollection_27">
    <g clip-path="url(#p23cdadbe99)">
     <use xlink:href="#me1d1295832" x="90.0072" y="129.456" style="fill: #dd8452; stroke: #dd8452"/>
    </g>
   </g>
   <g id="patch_73">
    <path d="M 90.0072 140.544 
C 92.947772 140.544 95.768302 139.375698 97.8476 137.2964 
C 99.926898 135.217102 101.0952 132.396572 101.0952 129.456 
C 101.0952 126.515428 99.926898 123.694898 97.8476 121.6156 
C 95.768302 119.536302 92.947772 118.368 90.0072 118.368 
C 87.066628 118.368 84.246098 119.536302 82.1668 121.6156 
C 80.087502 123.694898 78.9192 126.515428 78.9192 129.456 
C 78.9192 132.396572 80.087502 135.217102 82.1668 137.2964 
C 84.246098 139.375698 87.066628 140.544 90.0072 140.544 
z
" clip-path="url(#p23cdadbe99)" style="fill: #dd8452; stroke: #dd8452; stroke-linejoin: miter"/>
   </g>
   <g id="PathCollection_28">
    <g clip-path="url(#p23cdadbe99)">
     <use xlink:href="#me1d1295832" x="175.9392" y="184.6188" style="fill: #dd8452; stroke: #dd8452"/>
    </g>
   </g>
   <g id="patch_74">
    <path d="M 175.9392 195.7068 
C 178.879772 195.7068 181.700302 194.538498 183.7796 192.4592 
C 185.858898 190.379902 187.0272 187.559372 187.0272 184.6188 
C 187.0272 181.678228 185.858898 178.857698 183.7796 176.7784 
C 181.700302 174.699102 178.879772 173.5308 175.9392 173.5308 
C 172.998628 173.5308 170.178098 174.699102 168.0988 176.7784 
C 166.019502 178.857698 164.8512 181.678228 164.8512 184.6188 
C 164.8512 187.559372 166.019502 190.379902 168.0988 192.4592 
C 170.178098 194.538498 172.998628 195.7068 175.9392 195.7068 
z
" clip-path="url(#p23cdadbe99)" style="fill: #dd8452; stroke: #dd8452; stroke-linejoin: miter"/>
   </g>
   <g id="PathCollection_29">
    <g clip-path="url(#p23cdadbe99)">
     <use xlink:href="#m450daea7bc" x="278.7804" y="79.8372" style="fill: #c44e52; stroke: #c44e52"/>
    </g>
   </g>
   <g id="patch_75">
    <path d="M 278.7804 90.9252 
C 281.720972 90.9252 284.541502 89.756898 286.6208 87.6776 
C 288.700098 85.598302 289.8684 82.777772 289.8684 79.8372 
C 289.8684 76.896628 288.700098 74.076098 286.6208 71.9968 
C 284.541502 69.917502 281.720972 68.7492 278.7804 68.7492 
C 275.839828 68.7492 273.019298 69.917502 270.94 71.9968 
C 268.860702 74.076098 267.6924 76.896628 267.6924 79.8372 
C 267.6924 82.777772 268.860702 85.598302 270.94 87.6776 
C 273.019298 89.756898 275.839828 90.9252 278.7804 90.9252 
z
" clip-path="url(#p23cdadbe99)" style="fill: #c44e52; stroke: #c44e52; stroke-linejoin: miter"/>
   </g>
   <g id="PathCollection_30">
    <g clip-path="url(#p23cdadbe99)">
     <use xlink:href="#me1d1295832" x="128.8152" y="177.1344" style="fill: #dd8452; stroke: #dd8452"/>
    </g>
   </g>
   <g id="patch_76">
    <path d="M 128.8152 188.2224 
C 131.755772 188.2224 134.576302 187.054098 136.6556 184.9748 
C 138.734898 182.895502 139.9032 180.074972 139.9032 177.1344 
C 139.9032 174.193828 138.734898 171.373298 136.6556 169.294 
C 134.576302 167.214702 131.755772 166.0464 128.8152 166.0464 
C 125.874628 166.0464 123.054098 167.214702 120.9748 169.294 
C 118.895502 171.373298 117.7272 174.193828 117.7272 177.1344 
C 117.7272 180.074972 118.895502 182.895502 120.9748 184.9748 
C 123.054098 187.054098 125.874628 188.2224 128.8152 188.2224 
z
" clip-path="url(#p23cdadbe99)" style="fill: #dd8452; stroke: #dd8452; stroke-linejoin: miter"/>
   </g>
   <g id="PathCollection_31">
    <g clip-path="url(#p23cdadbe99)">
     <use xlink:href="#me1d1295832" x="298.4616" y="279.4212" style="fill: #dd8452; stroke: #dd8452"/>
    </g>
   </g>
   <g id="patch_77">
    <path d="M 298.4616 290.5092 
C 301.402172 290.5092 304.222702 289.340898 306.302 287.2616 
C 308.381298 285.182302 309.5496 282.361772 309.5496 279.4212 
C 309.5496 276.480628 308.381298 273.660098 306.302 271.5808 
C 304.222702 269.501502 301.402172 268.3332 298.4616 268.3332 
C 295.521028 268.3332 292.700498 269.501502 290.6212 271.5808 
C 288.541902 273.660098 287.3736 276.480628 287.3736 279.4212 
C 287.3736 282.361772 288.541902 285.182302 290.6212 287.2616 
C 292.700498 289.340898 295.521028 290.5092 298.4616 290.5092 
z
" clip-path="url(#p23cdadbe99)" style="fill: #dd8452; stroke: #dd8452; stroke-linejoin: miter"/>
   </g>
   <g id="PathCollection_32">
    <g clip-path="url(#p23cdadbe99)">
     <use xlink:href="#m450daea7bc" x="264.366" y="148.5828" style="fill: #c44e52; stroke: #c44e52"/>
    </g>
   </g>
   <g id="patch_78">
    <path d="M 264.366 159.6708 
C 267.306572 159.6708 270.127102 158.502498 272.2064 156.4232 
C 274.285698 154.343902 275.454 151.523372 275.454 148.5828 
C 275.454 145.642228 274.285698 142.821698 272.2064 140.7424 
C 270.127102 138.663102 267.306572 137.4948 264.366 137.4948 
C 261.425428 137.4948 258.604898 138.663102 256.5256 140.7424 
C 254.446302 142.821698 253.278 145.642228 253.278 148.5828 
C 253.278 151.523372 254.446302 154.343902 256.5256 156.4232 
C 258.604898 158.502498 261.425428 159.6708 264.366 159.6708 
z
" clip-path="url(#p23cdadbe99)" style="fill: #c44e52; stroke: #c44e52; stroke-linejoin: miter"/>
   </g>
   <g id="PathCollection_33">
    <g clip-path="url(#p23cdadbe99)">
     <use xlink:href="#m450daea7bc" x="340.0416" y="154.9584" style="fill: #c44e52; stroke: #c44e52"/>
    </g>
   </g>
   <g id="patch_79">
    <path d="M 340.0416 166.0464 
C 342.982172 166.0464 345.802702 164.878098 347.882 162.7988 
C 349.961298 160.719502 351.1296 157.898972 351.1296 154.9584 
C 351.1296 152.017828 349.961298 149.197298 347.882 147.118 
C 345.802702 145.038702 342.982172 143.8704 340.0416 143.8704 
C 337.101028 143.8704 334.280498 145.038702 332.2012 147.118 
C 330.121902 149.197298 328.9536 152.017828 328.9536 154.9584 
C 328.9536 157.898972 330.121902 160.719502 332.2012 162.7988 
C 334.280498 164.878098 337.101028 166.0464 340.0416 166.0464 
z
" clip-path="url(#p23cdadbe99)" style="fill: #c44e52; stroke: #c44e52; stroke-linejoin: miter"/>
   </g>
   <g id="PathCollection_34">
    <g clip-path="url(#p23cdadbe99)">
     <use xlink:href="#m450daea7bc" x="317.034" y="143.0388" style="fill: #c44e52; stroke: #c44e52"/>
    </g>
   </g>
   <g id="patch_80">
    <path d="M 317.034 154.1268 
C 319.974572 154.1268 322.795102 152.958498 324.8744 150.8792 
C 326.953698 148.799902 328.122 145.979372 328.122 143.0388 
C 328.122 140.098228 326.953698 137.277698 324.8744 135.1984 
C 322.795102 133.119102 319.974572 131.9508 317.034 131.9508 
C 314.093428 131.9508 311.272898 133.119102 309.1936 135.1984 
C 307.114302 137.277698 305.946 140.098228 305.946 143.0388 
C 305.946 145.979372 307.114302 148.799902 309.1936 150.8792 
C 311.272898 152.958498 314.093428 154.1268 317.034 154.1268 
z
" clip-path="url(#p23cdadbe99)" style="fill: #c44e52; stroke: #c44e52; stroke-linejoin: miter"/>
   </g>
   <g id="PathCollection_35">
    <g clip-path="url(#p23cdadbe99)">
     <use xlink:href="#me1d1295832" x="210.5892" y="142.2072" style="fill: #dd8452; stroke: #dd8452"/>
    </g>
   </g>
   <g id="patch_81">
    <path d="M 210.5892 153.2952 
C 213.529772 153.2952 216.350302 152.126898 218.4296 150.0476 
C 220.508898 147.968302 221.6772 145.147772 221.6772 142.2072 
C 221.6772 139.266628 220.508898 136.446098 218.4296 134.3668 
C 216.350302 132.287502 213.529772 131.1192 210.5892 131.1192 
C 207.648628 131.1192 204.828098 132.287502 202.7488 134.3668 
C 200.669502 136.446098 199.5012 139.266628 199.5012 142.2072 
C 199.5012 145.147772 200.669502 147.968302 202.7488 150.0476 
C 204.828098 152.126898 207.648628 153.2952 210.5892 153.2952 
z
" clip-path="url(#p23cdadbe99)" style="fill: #dd8452; stroke: #dd8452; stroke-linejoin: miter"/>
   </g>
   <g id="PathCollection_36">
    <g clip-path="url(#p23cdadbe99)">
     <use xlink:href="#mcaf9b8a936" x="239.1408" y="226.7532" style="fill: #64b5cd; stroke: #64b5cd"/>
    </g>
   </g>
   <g id="patch_82">
    <path d="M 239.1408 237.8412 
C 242.081372 237.8412 244.901902 236.672898 246.9812 234.5936 
C 249.060498 232.514302 250.2288 229.693772 250.2288 226.7532 
C 250.2288 223.812628 249.060498 220.992098 246.9812 218.9128 
C 244.901902 216.833502 242.081372 215.6652 239.1408 215.6652 
C 236.200228 215.6652 233.379698 216.833502 231.3004 218.9128 
C 229.221102 220.992098 228.0528 223.812628 228.0528 226.7532 
C 228.0528 229.693772 229.221102 232.514302 231.3004 234.5936 
C 233.379698 236.672898 236.200228 237.8412 239.1408 237.8412 
z
" clip-path="url(#p23cdadbe99)" style="fill: #64b5cd; stroke: #64b5cd; stroke-linejoin: miter"/>
   </g>
   <g id="PathCollection_37">
    <g clip-path="url(#p23cdadbe99)">
     <use xlink:href="#m450daea7bc" x="155.7036" y="335.4156" style="fill: #c44e52; stroke: #c44e52"/>
    </g>
   </g>
   <g id="patch_83">
    <path d="M 155.7036 346.5036 
C 158.644172 346.5036 161.464702 345.335298 163.544 343.256 
C 165.623298 341.176702 166.7916 338.356172 166.7916 335.4156 
C 166.7916 332.475028 165.623298 329.654498 163.544 327.5752 
C 161.464702 325.495902 158.644172 324.3276 155.7036 324.3276 
C 152.763028 324.3276 149.942498 325.495902 147.8632 327.5752 
C 145.783902 329.654498 144.6156 332.475028 144.6156 335.4156 
C 144.6156 338.356172 145.783902 341.176702 147.8632 343.256 
C 149.942498 345.335298 152.763028 346.5036 155.7036 346.5036 
z
" clip-path="url(#p23cdadbe99)" style="fill: #c44e52; stroke: #c44e52; stroke-linejoin: miter"/>
   </g>
   <g id="PathCollection_38">
    <g clip-path="url(#p23cdadbe99)">
     <use xlink:href="#me1d1295832" x="280.1664" y="335.97" style="fill: #dd8452; stroke: #dd8452"/>
    </g>
   </g>
   <g id="patch_84">
    <path d="M 280.1664 347.058 
C 283.106972 347.058 285.927502 345.889698 288.0068 343.8104 
C 290.086098 341.731102 291.2544 338.910572 291.2544 335.97 
C 291.2544 333.029428 290.086098 330.208898 288.0068 328.1296 
C 285.927502 326.050302 283.106972 324.882 280.1664 324.882 
C 277.225828 324.882 274.405298 326.050302 272.326 328.1296 
C 270.246702 330.208898 269.0784 333.029428 269.0784 335.97 
C 269.0784 338.910572 270.246702 341.731102 272.326 343.8104 
C 274.405298 345.889698 277.225828 347.058 280.1664 347.058 
z
" clip-path="url(#p23cdadbe99)" style="fill: #dd8452; stroke: #dd8452; stroke-linejoin: miter"/>
   </g>
   <g id="PathCollection_39">
    <g clip-path="url(#p23cdadbe99)">
     <use xlink:href="#m450daea7bc" x="297.63" y="131.3964" style="fill: #c44e52; stroke: #c44e52"/>
    </g>
   </g>
   <g id="patch_85">
    <path d="M 297.63 142.4844 
C 300.570572 142.4844 303.391102 141.316098 305.4704 139.2368 
C 307.549698 137.157502 308.718 134.336972 308.718 131.3964 
C 308.718 128.455828 307.549698 125.635298 305.4704 123.556 
C 303.391102 121.476702 300.570572 120.3084 297.63 120.3084 
C 294.689428 120.3084 291.868898 121.476702 289.7896 123.556 
C 287.710302 125.635298 286.542 128.455828 286.542 131.3964 
C 286.542 134.336972 287.710302 137.157502 289.7896 139.2368 
C 291.868898 141.316098 294.689428 142.4844 297.63 142.4844 
z
" clip-path="url(#p23cdadbe99)" style="fill: #c44e52; stroke: #c44e52; stroke-linejoin: miter"/>
   </g>
   <g id="PathCollection_40">
    <g clip-path="url(#p23cdadbe99)">
     <use xlink:href="#me1d1295832" x="329.2308" y="314.6256" style="fill: #dd8452; stroke: #dd8452"/>
    </g>
   </g>
   <g id="patch_86">
    <path d="M 329.2308 325.7136 
C 332.171372 325.7136 334.991902 324.545298 337.0712 322.466 
C 339.150498 320.386702 340.3188 317.566172 340.3188 314.6256 
C 340.3188 311.685028 339.150498 308.864498 337.0712 306.7852 
C 334.991902 304.705902 332.171372 303.5376 329.2308 303.5376 
C 326.290228 303.5376 323.469698 304.705902 321.3904 306.7852 
C 319.311102 308.864498 318.1428 311.685028 318.1428 314.6256 
C 318.1428 317.566172 319.311102 320.386702 321.3904 322.466 
C 323.469698 324.545298 326.290228 325.7136 329.2308 325.7136 
z
" clip-path="url(#p23cdadbe99)" style="fill: #dd8452; stroke: #dd8452; stroke-linejoin: miter"/>
   </g>
   <g id="matplotlib.axis_1"/>
   <g id="matplotlib.axis_2"/>
   <g id="patch_87">
    <path d="M 54 384.48 
L 54 51.84 
" style="fill: none; stroke: #000000; stroke-width: 0.8; stroke-linejoin: miter; stroke-linecap: square"/>
   </g>
   <g id="patch_88">
    <path d="M 388.8 384.48 
L 388.8 51.84 
" style="fill: none; stroke: #000000; stroke-width: 0.8; stroke-linejoin: miter; stroke-linecap: square"/>
   </g>
   <g id="patch_89">
    <path d="M 54 384.48 
L 388.8 384.48 
" style="fill: none; stroke: #000000; stroke-width: 0.8; stroke-linejoin: miter; stroke-linecap: square"/>
   </g>
   <g id="patch_90">
    <path d="M 54 51.84 
L 388.8 51.84 
" style="fill: none; stroke: #000000; stroke-width: 0.8; stroke-linejoin: miter; stroke-linecap: square"/>
   </g>
   <g id="text_1">
    <!-- Day 51 -->
    <g transform="translate(185.75 45.84) scale(0.2 -0.2)">
     <defs>
      <path id="DejaVuSans-44" d="M 1259 4147 
L 1259 519 
L 2022 519 
Q 2988 519 3436 956 
Q 3884 1394 3884 2338 
Q 3884 3275 3436 3711 
Q 2988 4147 2022 4147 
L 1259 4147 
z
M 628 4666 
L 1925 4666 
Q 3281 4666 3915 4102 
Q 4550 3538 4550 2338 
Q 4550 1131 3912 565 
Q 3275 0 1925 0 
L 628 0 
L 628 4666 
z
" transform="scale(0.015625)"/>
      <path id="DejaVuSans-61" d="M 2194 1759 
Q 1497 1759 1228 1600 
Q 959 1441 959 1056 
Q 959 750 1161 570 
Q 1363 391 1709 391 
Q 2188 391 2477 730 
Q 2766 1069 2766 1631 
L 2766 1759 
L 2194 1759 
z
M 3341 1997 
L 3341 0 
L 2766 0 
L 2766 531 
Q 2569 213 2275 61 
Q 1981 -91 1556 -91 
Q 1019 -91 701 211 
Q 384 513 384 1019 
Q 384 1609 779 1909 
Q 1175 2209 1959 2209 
L 2766 2209 
L 2766 2266 
Q 2766 2663 2505 2880 
Q 2244 3097 1772 3097 
Q 1472 3097 1187 3025 
Q 903 2953 641 2809 
L 641 3341 
Q 956 3463 1253 3523 
Q 1550 3584 1831 3584 
Q 2591 3584 2966 3190 
Q 3341 2797 3341 1997 
z
" transform="scale(0.015625)"/>
      <path id="DejaVuSans-79" d="M 2059 -325 
Q 1816 -950 1584 -1140 
Q 1353 -1331 966 -1331 
L 506 -1331 
L 506 -850 
L 844 -850 
Q 1081 -850 1212 -737 
Q 1344 -625 1503 -206 
L 1606 56 
L 191 3500 
L 800 3500 
L 1894 763 
L 2988 3500 
L 3597 3500 
L 2059 -325 
z
" transform="scale(0.015625)"/>
      <path id="DejaVuSans-20" transform="scale(0.015625)"/>
      <path id="DejaVuSans-35" d="M 691 4666 
L 3169 4666 
L 3169 4134 
L 1269 4134 
L 1269 2991 
Q 1406 3038 1543 3061 
Q 1681 3084 1819 3084 
Q 2600 3084 3056 2656 
Q 3513 2228 3513 1497 
Q 3513 744 3044 326 
Q 2575 -91 1722 -91 
Q 1428 -91 1123 -41 
Q 819 9 494 109 
L 494 744 
Q 775 591 1075 516 
Q 1375 441 1709 441 
Q 2250 441 2565 725 
Q 2881 1009 2881 1497 
Q 2881 1984 2565 2268 
Q 2250 2553 1709 2553 
Q 1456 2553 1204 2497 
Q 953 2441 691 2322 
L 691 4666 
z
" transform="scale(0.015625)"/>
      <path id="DejaVuSans-31" d="M 794 531 
L 1825 531 
L 1825 4091 
L 703 3866 
L 703 4441 
L 1819 4666 
L 2450 4666 
L 2450 531 
L 3481 531 
L 3481 0 
L 794 0 
L 794 531 
z
" transform="scale(0.015625)"/>
     </defs>
     <use xlink:href="#DejaVuSans-44"/>
     <use xlink:href="#DejaVuSans-61" x="77.001953"/>
     <use xlink:href="#DejaVuSans-79" x="138.28125"/>
     <use xlink:href="#DejaVuSans-20" x="197.460938"/>
     <use xlink:href="#DejaVuSans-35" x="229.248047"/>
     <use xlink:href="#DejaVuSans-31" x="292.871094"/>
    </g>
   </g>
  </g>
 </g>
 <defs>
  <clipPath id="p23cdadbe99">
   <rect x="54" y="51.84" width="334.8" height="332.64"/>
  </clipPath>
 </defs>
</svg>
